<svg id="Capa_1" enable-background="new 0 0 512.02 512.02" height="512" viewBox="0 0 512.02 512.02" width="512" xmlns="http://www.w3.org/2000/svg"><g><g><path d="m341.735 387.107c-12.642-12.642-33.211-12.642-45.853 0l-7.793 7.793v-28.557c0-4.142-3.358-7.5-7.5-7.5s-7.5 3.358-7.5 7.5v46.663c0 3.033 1.827 5.768 4.63 6.929 2.802 1.161 6.029.52 8.173-1.626l20.597-20.597c6.793-6.792 17.847-6.793 24.585-.055.018.018.06.061.078.079 6.784 6.784 6.792 17.831.016 24.624l-74.046 74.243c-.342.344-.733.416-1.001.416h-.001c-.268 0-.658-.072-1-.415l-74.251-74.251c-6.793-6.793-6.793-17.847 0-24.641 6.793-6.793 17.847-6.793 24.64 0l20.62 20.62c2.146 2.146 5.373 2.787 8.173 1.626 2.803-1.161 4.63-3.896 4.63-6.929v-132.441c0-4.142-3.358-7.5-7.5-7.5h-132.419c-3.034 0-5.768 1.827-6.929 4.63s-.519 6.028 1.626 8.173l20.597 20.597c6.793 6.793 6.793 17.847-.023 24.664-6.785 6.784-17.831 6.792-24.624.016l-74.243-74.046c-.345-.342-.417-.733-.417-1.001s.072-.659.415-1.002l40.165-40.165c2.929-2.929 2.929-7.678 0-10.606-2.929-2.929-7.678-2.929-10.606 0l-40.166 40.165c-3.104 3.104-4.811 7.229-4.808 11.619.003 4.389 1.716 8.512 4.823 11.612l74.243 74.046c12.642 12.608 33.198 12.594 45.846-.054 12.642-12.642 12.642-33.211 0-45.853l-7.793-7.793h106.812v106.835l-7.817-7.817c-12.642-12.642-33.211-12.641-45.853 0s-12.642 33.211 0 45.853l74.251 74.25c3.101 3.102 7.223 4.809 11.607 4.809h.011c4.389-.002 8.513-1.716 11.613-4.823l74.046-74.243c12.608-12.642 12.594-33.198.024-45.768-.018-.019-.06-.061-.078-.079z"/><path d="m507.211 244.513-74.251-74.251c-6.124-6.124-14.266-9.497-22.927-9.497s-16.803 3.373-22.927 9.497c-12.642 12.641-12.642 33.211 0 45.853l7.816 7.816h-106.834v-106.812l7.793 7.793c12.642 12.642 33.212 12.642 45.876-.023 12.625-12.625 12.638-33.181.031-45.823l-74.045-74.243c-3.1-3.107-7.223-4.82-11.612-4.823-.004 0-.007 0-.011 0-4.385 0-8.507 1.708-11.607 4.808l-74.252 74.252c-12.642 12.642-12.642 33.211 0 45.853 12.643 12.642 33.211 12.642 45.853 0l7.817-7.816v106.835h-106.835l7.816-7.816c12.642-12.642 12.642-33.211 0-45.854-12.643-12.642-33.212-12.64-45.854 0l-9.649 9.649c-2.929 2.929-2.929 7.678 0 10.606 2.929 2.929 7.678 2.929 10.606 0l9.649-9.649c3.291-3.291 7.667-5.104 12.32-5.104s9.029 1.813 12.32 5.104c6.793 6.793 6.793 17.847 0 24.64l-20.62 20.62c-2.145 2.145-2.787 5.371-1.626 8.173 1.161 2.803 3.896 4.63 6.929 4.63h132.441c4.142 0 7.5-3.358 7.5-7.5v-132.441c0-3.034-1.827-5.768-4.63-6.929-2.801-1.16-6.028-.52-8.173 1.626l-20.62 20.62c-6.794 6.793-17.847 6.792-24.64 0-6.793-6.793-6.793-17.847 0-24.64l74.251-74.251c.343-.342.733-.415 1.001-.415h.001c.268 0 .659.072 1.001.416l74.046 74.243c6.775 6.793 6.768 17.839-.04 24.647-6.793 6.793-17.847 6.793-24.64 0l-20.597-20.597c-2.145-2.146-5.371-2.788-8.173-1.626-2.803 1.161-4.63 3.896-4.63 6.929v132.418c0 4.142 3.358 7.5 7.5 7.5h132.445c3.033 0 5.768-1.827 6.929-4.63s.519-6.028-1.626-8.173l-20.62-20.62c-6.793-6.793-6.793-17.847 0-24.641 6.792-6.792 17.846-6.793 24.641 0l74.251 74.251c.343.343.415.734.415 1.002s-.072.659-.416 1.001l-74.243 74.046c-6.793 6.775-17.839 6.768-24.647-.04-6.793-6.793-6.793-17.847 0-24.64l20.597-20.597c2.145-2.145 2.787-5.371 1.626-8.173-1.161-2.803-3.896-4.63-6.929-4.63h-132.42c-4.142 0-7.5 3.358-7.5 7.5v51.088c0 4.142 3.358 7.5 7.5 7.5s7.5-3.358 7.5-7.5v-43.588h106.812l-7.793 7.793c-12.642 12.642-12.642 33.211.023 45.876 6.318 6.319 14.621 9.479 22.927 9.478 8.289 0 16.581-3.149 22.896-9.447l74.243-74.046c3.107-3.1 4.82-7.223 4.823-11.612.003-4.387-1.704-8.513-4.808-11.616z"/></g></g></svg>