<svg id="Capa_1" enable-background="new 0 0 512 512" height="512" viewBox="0 0 512 512" width="512" xmlns="http://www.w3.org/2000/svg"><path d="m507.606 245.394-68.703-68.703c-4.29-4.291-10.742-5.572-16.347-3.252-5.605 2.322-9.26 7.791-9.26 13.858v19.896h-108.488v-108.489h19.896c6.067 0 11.536-3.654 13.858-9.26 2.321-5.605 1.038-12.057-3.252-16.347l-68.704-68.703c-2.812-2.814-6.627-4.394-10.606-4.394s-7.794 1.58-10.606 4.394l-68.704 68.704c-4.29 4.29-5.573 10.741-3.252 16.347 2.322 5.605 7.792 9.26 13.858 9.26h19.896v108.489h-108.488v-19.896c0-6.066-3.654-11.536-9.26-13.858-5.603-2.32-12.057-1.039-16.347 3.252l-68.703 68.702c-2.814 2.812-4.394 6.628-4.394 10.606s1.58 7.794 4.394 10.606l68.704 68.704c4.29 4.292 10.744 5.573 16.347 3.252 5.605-2.322 9.26-7.791 9.26-13.858v-19.896h108.489v108.489h-19.896c-6.067 0-11.536 3.654-13.858 9.26-2.321 5.605-1.038 12.057 3.252 16.347l68.703 68.703c2.929 2.93 6.768 4.394 10.606 4.394s7.678-1.465 10.606-4.394l68.704-68.703c4.29-4.29 5.573-10.741 3.252-16.347-2.322-5.605-7.791-9.26-13.858-9.26h-19.896v-108.489h108.489v19.896c0 6.067 3.654 11.536 9.26 13.858 5.607 2.321 12.057 1.038 16.347-3.252l68.703-68.704c5.857-5.857 5.857-15.355-.002-21.212zm-64.362 43.149c-.642-7.692-7.089-13.735-14.947-13.735h-138.489c-8.284 0-15 6.716-15 15v138.489c0 7.858 6.043 14.306 13.735 14.947l-32.543 32.543-32.542-32.543c7.692-.642 13.735-7.089 13.735-14.947v-138.489c0-8.284-6.716-15-15-15h-138.489c-7.858 0-14.306 6.043-14.947 13.735l-32.544-32.543 32.544-32.543c.642 7.692 7.089 13.736 14.947 13.736h138.489c8.284 0 15-6.716 15-15v-138.489c0-7.858-6.044-14.306-13.736-14.947l32.543-32.544 32.543 32.544c-7.692.642-13.735 7.089-13.735 14.947v138.489c0 8.284 6.716 15 15 15h138.489c7.858 0 14.306-6.043 14.947-13.735l32.543 32.542z"/></svg>