<svg id="Capa_1" enable-background="new 0 0 512 512" height="512" viewBox="0 0 512 512" width="512" xmlns="http://www.w3.org/2000/svg"><g><path d="m256 361c57.897 0 105-47.103 105-105s-47.103-105-105-105-105 47.103-105 105 47.103 105 105 105zm0-180c41.355 0 75 33.645 75 75s-33.645 75-75 75-75-33.645-75-75 33.645-75 75-75z"/><path d="m152.158 111.778c2.331 5.585 7.79 9.222 13.842 9.222h180c6.052 0 11.511-3.637 13.843-9.222 2.331-5.584 1.078-12.023-3.178-16.326l-90-91c-2.818-2.849-6.658-4.452-10.665-4.452s-7.847 1.603-10.665 4.452l-90 91c-4.255 4.303-5.509 10.742-3.177 16.326zm103.842-75.446 54.067 54.668h-108.135z"/><path d="m346 391h-180c-6.052 0-11.511 3.637-13.842 9.222-2.332 5.584-1.078 12.023 3.177 16.326l90 91c2.818 2.849 6.658 4.452 10.665 4.452s7.847-1.603 10.665-4.452l90-91c4.256-4.303 5.509-10.742 3.178-16.326-2.332-5.585-7.791-9.222-13.843-9.222zm-90 84.668-54.068-54.668h108.135z"/><path d="m111.778 152.158c-5.584-2.332-12.024-1.078-16.326 3.177l-91 90c-2.849 2.818-4.452 6.658-4.452 10.665s1.603 7.847 4.452 10.665l91 90c4.311 4.264 10.753 5.504 16.326 3.177 5.585-2.331 9.222-7.79 9.222-13.842v-180c0-6.052-3.637-11.511-9.222-13.842zm-20.778 157.91-54.668-54.068 54.668-54.068z"/><path d="m416.548 155.335c-4.305-4.257-10.745-5.508-16.326-3.177-5.585 2.331-9.222 7.79-9.222 13.842v180c0 6.052 3.637 11.511 9.222 13.842 5.619 2.345 12.049 1.053 16.326-3.177l91-90c2.848-2.818 4.452-6.658 4.452-10.665s-1.604-7.847-4.452-10.665zm4.452 154.733v-108.136l54.669 54.068z"/></g></svg>