<?xml version="1.0" encoding="iso-8859-1"?>
<!-- Generator: Adobe Illustrator 19.0.0, SVG Export Plug-In . SVG Version: 6.00 Build 0)  -->
<svg version="1.1" id="Capa_1" xmlns="http://www.w3.org/2000/svg" xmlns:xlink="http://www.w3.org/1999/xlink" x="0px" y="0px"
	 viewBox="0 0 512 512" style="enable-background:new 0 0 512 512;" xml:space="preserve">
<g>
	<g>
		<path d="M512,256l-125.578-72.503v57.72H270.991v-115.64h57.512L256,0l-72.503,125.578h57.512v115.64H125.578v-57.721L0,256
			l125.578,72.503V271.2h115.431v115.222h-57.512L256,512l72.503-125.578h-57.512V271.2h115.431v57.303L512,256z M416.404,235.428
			L452.036,256l-35.632,20.572V235.428z M95.596,276.572L59.964,256l35.632-20.572V276.572z M276.572,416.404L256,452.036
			l-20.572-35.632H276.572z M235.428,95.596L256,59.964l20.572,35.632H235.428z"/>
	</g>
</g>
<g>
</g>
<g>
</g>
<g>
</g>
<g>
</g>
<g>
</g>
<g>
</g>
<g>
</g>
<g>
</g>
<g>
</g>
<g>
</g>
<g>
</g>
<g>
</g>
<g>
</g>
<g>
</g>
<g>
</g>
</svg>
